<?xml version="1.0" encoding="UTF-8"?>
<!DOCTYPE svg PUBLIC "-//W3C//DTD SVG 1.1//EN" "http://www.w3.org/Graphics/SVG/1.1/DTD/svg11.dtd">
<!-- Creator: CorelDRAW -->
<svg xmlns="http://www.w3.org/2000/svg" xml:space="preserve" width="2048px" height="2048px" style="shape-rendering:geometricPrecision; text-rendering:geometricPrecision; image-rendering:optimizeQuality; fill-rule:evenodd; clip-rule:evenodd"
viewBox="0 0 2048 2048"
 xmlns:xlink="http://www.w3.org/1999/xlink">
 <defs>
  <style type="text/css">
   <![CDATA[
    .fil0 {fill:none}
    .fil1 {fill:#212121;fill-rule:nonzero}
   ]]>
  </style>
 </defs>
 <g id="Layer_x0020_1">
  <metadata id="CorelCorpID_0Corel-Layer"/>
  <g id="_393287224">
   <rect id="_393273472" class="fil0" width="2048" height="2048"/>
   <rect id="_393279040" class="fil0" x="255.999" y="255.999" width="1536" height="1536"/>
  </g>
  <g id="_393275536">
   <path id="_393274768" class="fil1" d="M582.443 758.514l-0.00590552 312.676c52.9063,8.35631 94.6524,36.4855 136.156,64.4611 26.4154,17.8051 52.7256,35.5382 79.3666,45.5327 78.743,29.5488 179.095,19.1764 272.9,9.47953 59.6115,-6.163 116.75,-12.0685 167.131,-8.13071l-0.0011811 0.0177165 99.2824 0.804331 0 -0.122835c17.5134,0 30.8906,-5.92796 38.5406,-15.1063 4.14803,-4.97599 6.73229,-11.087 7.41615,-17.7874 0.739371,-7.24253 -0.790158,-15.437 -4.97599,-24.0414 -11.1969,-23.0138 -39.613,-46.6536 -91.1257,-63.4583 -32.4343,-10.5827 -72.1654,-13.3382 -110.753,-16.0134 -49.7315,-3.44646 -97.7824,-6.78071 -136.631,-25.9288l-5.00079 -3.1252c-11.6032,-8.70001 -22.089,-18.5445 -30.6673,-29.1378 -13.2532,-16.3677 -22.3453,-34.8355 -24.9024,-54.3591 -2.79331,-21.3272 2.01851,-42.8315 17.1756,-63.0473 5.4189,-7.22481 12.0756,-14.1354 20.0917,-20.6268l13.7492 -6.49961c1.36417,-0.276378 6.87402,-1.50236 15.7158,-3.41103 50.5784,-10.9146 123.849,-26.726 170.684,3.3437 3.51614,2.25827 8.82875,5.82284 14.0291,9.313 13.8709,9.30473 26.4591,17.7508 51.1323,28.826 5.65276,2.53701 5.10827,3.07441 5.34449,2.84292 7.93583,-7.79056 19.0477,-18.7004 40.1469,-31.1563 32.6185,-19.252 63.665,-28.565 87.5493,-35.3386 -230.489,-187.164 -340.643,-157.742 -502.985,-114.334 -87.6981,23.4496 -189.516,50.6681 -329.362,54.3284zm-63.7571 342.188l0.00590552 -373.77 0.0011811 -32.0008 31.8744 0c148.408,0 254.385,-28.337 344.738,-52.4965 181.618,-48.5622 304.641,-81.4571 562.04,128.446 43.1929,35.139 49.9914,58.5508 30.1949,82.8827 -11.1768,13.7398 -28.2071,18.5492 -51.4559,25.1126 -20.902,5.90079 -48.9839,13.8319 -76.3442,29.9811 -14.6386,8.64213 -22.3736,16.2366 -27.8965,21.6579 -23.5725,23.1402 -30.7996,30.2362 -76.0949,9.90591 -29.7343,-13.3465 -44.4331,-23.2087 -60.6308,-34.0748 -3.36142,-2.25591 -6.84213,-4.58977 -13.0299,-8.56418 -24.5599,-15.7689 -82.6123,-3.24213 -122.684,5.40591 -1.77165,0.382677 -3.52323,0.760631 -8.04213,1.69016 -1.55197,1.5626 -2.8878,3.09685 -4.01457,4.59922 -4.22599,5.63741 -5.61851,11.2453 -4.9252,16.5449 0.930709,7.10316 5.02323,14.7921 11.152,22.3606 4.72323,5.83347 10.4622,11.3669 16.8614,16.4197 27.4382,12.5315 68.1225,15.3543 110.187,18.2705 42.5327,2.94803 86.328,5.98701 126.254,19.0134 70.1646,22.8898 110.895,59.2524 128.876,96.2103 9.55276,19.6335 12.9024,39.6768 10.976,58.5414 -1.98189,19.4043 -9.61772,37.2815 -21.9177,52.037 -19.428,23.3067 -50.0339,38.3575 -87.5398,38.3575l-0.250394 -0.125197 -101.656 -0.82441 -2.1248 0c-45.3544,-3.54449 -99.4454,2.04685 -155.88,7.88032 -100.909,10.4303 -208.86,21.5894 -301.65,-13.2307 -34.5048,-12.9437 -63.6284,-32.5725 -92.8666,-52.2815 -41.3622,-27.8788 -83.0068,-55.9489 -132.282,-55.9489l-31.8756 0 0 -32.0008zm915.199 -285.918c2.15551,-0.21378 3.48071,-0.440552 4.15512,-1.26969 3.87284,-4.75985 0.825591,-2.15433 -4.15512,1.26969z"/>
   <path id="_393280480" class="fil1" d="M305.057 593.16l101.502 0c22.9961,0 43.6973,10.4067 58.5201,27.1713 13.9051,15.7264 22.5355,37.0949 22.5355,60.3083l0 491.776c0,23.2134 -8.63268,44.5831 -22.5366,60.306 -14.824,16.7646 -35.5252,27.1736 -58.5189,27.1736l-101.502 0c-22.9961,0 -43.6973,-10.4079 -58.5213,-27.1725 -13.9039,-15.7217 -22.5355,-37.0914 -22.5355,-60.3071l0 -491.776c0,-23.2169 8.63032,-44.5855 22.5343,-60.3095 14.8228,-16.7646 35.5217,-27.1701 58.5225,-27.1701zm101.502 64.0016l-101.502 0c-3.9874,0 -7.81654,2.0752 -10.7728,5.4189 -3.8752,4.38307 -6.28229,10.7563 -6.28229,18.0591l0 491.776c0,7.3004 2.40709,13.6736 6.28347,18.0567 2.9563,3.3437 6.78662,5.42126 10.7717,5.42126l101.502 0c3.98268,0 7.81182,-2.07756 10.7693,-5.42245 3.87756,-4.38426 6.28465,-10.7575 6.28465,-18.0555l0 -491.776c0,-7.3004 -2.40709,-13.6736 -6.28347,-18.0579 -2.9563,-3.3437 -6.78544,-5.42008 -10.7705,-5.42008z"/>
   <g>
    <path id="_393282064" class="fil1" d="M1514.29 1254.51l0 -86.7272c-12.8776,-4.62284 -23.7166,-10.6205 -32.5158,-18.0225 0.0755906,-4.11142 -0.0389764,-8.22166 -0.334252,-12.3225 -1.78701,-24.8138 -10.337,-49.1835 -24.124,-70.7575 -1.55079,-2.42717 -3.15591,-4.80591 -4.80945,-7.13859 2.12244,-15.7028 7.48583,-29.3587 16.0937,-40.9689 11.478,-15.4099 26.6906,-24.2445 45.6898,-26.6469l0 -20.498 23.974 0 0 20.498c17.5866,2.68465 31.5532,10.1067 41.9575,22.4764 10.3488,12.3685 16.9642,28.9099 19.8473,49.6181l-41.9008 6.8563c-2.5441,-16.3276 -9.16064,-27.352 -19.904,-33.1488l0 80.9316c26.5205,8.9752 44.6162,20.6374 54.1713,34.917 9.613,14.2784 14.4189,32.5843 14.4189,54.991 0,24.9508 -6.04843,46.0134 -18.0945,63.1193 -12.1004,17.1732 -28.95,27.6366 -50.4957,31.5225l0 38.7343 -23.974 0 0 -37.7445c-19.1138,-2.89725 -34.6642,-11.8028 -46.5969,-26.7166 -8.74253,-10.8768 -15.1465,-25.0925 -19.2567,-42.6189 6.20434,-6.95906 11.7579,-14.6906 16.5354,-23.1957l23.1355 -3.1004c1.75276,11.0244 5.09056,20.5701 9.95316,28.5555 4.80473,7.98662 10.2331,13.7823 16.2295,17.387zm0 -217.417c-6.56103,2.75433 -11.7071,7.49056 -15.6083,14.0646 -3.84449,6.64489 -5.76733,13.9949 -5.76733,21.9815 0,7.28032 1.75276,14.1378 5.25827,20.3563 3.56339,6.29174 8.93505,11.3811 16.1173,15.2669l0 -71.6693zm23.974 220.315c8.3126,-1.90748 15.0414,-6.71457 20.2441,-14.3492 5.20276,-7.70197 7.80237,-16.6795 7.80237,-27.0709 0,-9.25985 -2.20394,-17.1744 -6.55867,-23.8902 -4.35237,-6.71339 -11.5335,-11.8736 -21.4878,-15.4075l0 80.7178z"/>
    <path id="_393288112" class="fil1" d="M1714.04 968.494c48.1642,48.1654 77.9564,114.705 77.9564,188.196 0,73.4906 -29.7921,140.029 -77.9564,188.195 -48.1666,48.1642 -114.704,77.9564 -188.195,77.9564 -73.4918,0 -140.03,-29.7921 -188.197,-77.9564 -18.6662,-18.6685 -34.5721,-40.0973 -47.054,-63.6189l46.1422 0.37441c10.5602,0.0862205 21.0543,-0.817323 31.291,-2.70827 5.15788,6.64961 10.7244,12.9662 16.6665,18.9083 36.1205,36.1193 86.0257,58.4622 141.151,58.4622 55.1245,0 105.028,-22.3429 141.149,-58.4622 36.1205,-36.1205 58.4622,-86.0257 58.4622,-141.15 0,-55.1245 -22.3417,-105.031 -58.4622,-141.151 -36.1205,-36.1193 -86.0245,-58.4622 -141.149,-58.4622 -49.9075,0 -95.5383,18.3154 -130.533,48.5847 -16.3677,-10.7221 -39.7772,-22.8366 -57.5304,-30.1087 100.257,-113.759 270.091,-113.222 376.258,-7.05827z"/>
   </g>
  </g>
 </g>
</svg>
