<?xml version="1.0" encoding="iso-8859-1"?>
<!-- Uploaded to: SVG Repo, www.svgrepo.com, Generator: SVG Repo Mixer Tools -->
<svg height="800px" width="800px" version="1.1" id="Layer_1" xmlns="http://www.w3.org/2000/svg" xmlns:xlink="http://www.w3.org/1999/xlink" 
	 viewBox="0 0 512 512" xml:space="preserve">
<path style="fill:#919CB0;" d="M217.6,499.2v-55.279c-23.97-4.89-46.908-14.387-67.328-27.887l-39.091,39.083l-54.298-54.298
	l39.083-39.091c-13.5-20.429-22.997-43.366-27.887-67.328H12.8v-76.8h55.279c4.89-23.97,14.387-46.908,27.887-67.328l-39.083-39.091
	l54.298-54.306l39.091,39.091c20.42-13.5,43.358-22.997,67.328-27.887V12.8h76.8v55.279c23.97,4.89,46.908,14.387,67.328,27.887
	l39.091-39.091l54.298,54.306l-39.083,39.091c13.5,20.429,22.997,43.366,27.887,67.328H499.2v76.8h-55.279
	c-4.89,23.97-14.387,46.908-27.887,67.328l39.083,39.091l-54.298,54.298l-39.091-39.083c-20.429,13.5-43.366,22.997-67.328,27.887
	V499.2H217.6z M256,140.8c-63.522,0-115.2,51.678-115.2,115.2S192.478,371.2,256,371.2S371.2,319.522,371.2,256
	S319.522,140.8,256,140.8z"/>
<g>
	<path style="fill:#573A32;" d="M25.6,307.2h32.299c4.779,18.466,12.134,36.233,21.82,52.676L56.875,382.72
		c-10.001,10.001-10.001,26.206,0,36.207l36.207,36.207c5.001,5.001,11.554,7.501,18.099,7.501s13.107-2.5,18.099-7.501
		l22.844-22.844c16.444,9.685,34.21,17.05,52.676,21.82v32.29c0,14.14,11.46,25.6,25.6,25.6h51.2c14.14,0,25.6-11.46,25.6-25.6
		v-32.299c18.466-4.779,36.233-12.134,52.676-21.82l22.844,22.844c5.001,5.001,11.554,7.501,18.099,7.501
		c6.545,0,13.107-2.5,18.099-7.501l36.198-36.207c10.001-10.001,10.001-26.206,0-36.207l-22.835-22.844
		c9.685-16.444,17.041-34.21,21.82-52.676H486.4c14.14,0,25.6-11.46,25.6-25.6v-51.2c0-14.14-11.46-25.6-25.6-25.6h-32.299
		c-4.779-18.466-12.134-36.233-21.82-52.676l22.835-22.844c10.001-10.001,10.001-26.206,0-36.207L418.91,56.858
		c-4.804-4.804-11.315-7.501-18.099-7.501c-6.793,0-13.303,2.697-18.099,7.501l-22.844,22.844
		c-16.435-9.668-34.202-17.024-52.668-21.803V25.6c0-14.14-11.46-25.6-25.6-25.6h-51.2c-14.14,0-25.6,11.46-25.6,25.6v32.299
		c-18.466,4.779-36.233,12.134-52.676,21.82l-22.835-22.844c-4.804-4.804-11.315-7.501-18.099-7.501
		c-6.784,0-13.303,2.697-18.099,7.501L56.883,93.082c-10.001,10.001-10.001,26.206,0,36.207l22.844,22.844
		c-9.694,16.435-17.05,34.202-21.828,52.668H25.6C11.46,204.8,0,216.26,0,230.4v51.2C0,295.74,11.46,307.2,25.6,307.2z M25.6,230.4
		h53.239c4.352-30.327,16.239-58.138,33.792-81.57l-37.641-37.641l36.207-36.207l37.641,37.641
		c23.433-17.545,51.243-29.44,81.57-33.783V25.6h51.2v53.239c30.327,4.352,58.138,16.239,81.57,33.783l37.641-37.641l36.207,36.207
		l-37.641,37.641c17.545,23.433,29.44,51.243,33.792,81.57H486.4v51.2h-53.239c-4.352,30.327-16.239,58.138-33.792,81.57
		l37.641,37.641l-36.207,36.207l-37.641-37.641c-23.433,17.545-51.243,29.44-81.57,33.792V486.4h-51.2v-53.239
		c-30.327-4.352-58.138-16.239-81.57-33.792l-37.641,37.641l-36.207-36.207l37.641-37.641c-17.545-23.433-29.44-51.243-33.792-81.57
		H25.6V230.4z"/>
	<path style="fill:#573A32;" d="M256,384c70.69,0,128-57.31,128-128s-57.31-128-128-128s-128,57.31-128,128S185.31,384,256,384z
		 M256,153.6c56.465,0,102.4,45.935,102.4,102.4S312.465,358.4,256,358.4S153.6,312.465,153.6,256S199.535,153.6,256,153.6z"/>
</g>
</svg>